<?xml version="1.0" ?>
<svg width="32px" height="32px" viewBox="0 0 32 32" data-name="Layer 9" id="Layer_9" xmlns="http://www.w3.org/2000/svg">
  <title/>
  <path d="M16,1.5A14.5,14.5,0,1,0,30.5,16,14.52,14.52,0,0,0,16,1.5Zm0,28A13.5,13.5,0,1,1,29.5,16,13.52,13.52,0,0,1,16,29.5Z"/>
  <ellipse cx="4.06" cy="16" rx="0.94" ry="0.93"/>
  <ellipse cx="16" cy="4.07" rx="0.94" ry="0.93"/>
  <ellipse cx="27.94" cy="16" rx="0.94" ry="0.93"/>
  <ellipse cx="16" cy="27.93" rx="0.94" ry="0.93"/>
  <path d="M16.5,15.77V6.86a0.5,0.5,0,0,0-1,0V16a0.5,0.5,0,0,0,.18.38l5,4.21a0.5,0.5,0,0,0,.64-0.77Z"/>
</svg>