<?xml version="1.0" ?>
<svg width="32px" height="32px" viewBox="0 0 32 32" data-name="Layer 3" id="Layer_3" xmlns="http://www.w3.org/2000/svg">
  <title/>
  <path d="M16,6.48A9.52,9.52,0,1,0,25.52,16,9.53,9.53,0,0,0,16,6.48Zm0,18A8.52,8.52,0,1,1,24.52,16,8.53,8.53,0,0,1,16,24.52Z"/>
  <path d="M10.74,7.45l0.14,0a0.5,0.5,0,0,0,.48-0.36l0.84-3h7.65l0.8,3a0.5,0.5,0,0,0,1-.26l-1.34-5a0.5,0.5,0,0,0-.48-0.37H12.27a0.5,0.5,0,0,0-.48.36l-1.4,5A0.5,0.5,0,0,0,10.74,7.45ZM19.4,2.5l0.17,0.63h-7.1l0.18-.64H19.4Z"/>
  <path d="M21.26,24.55a0.5,0.5,0,0,0-.61.35l-0.8,3H12.19l-0.84-3a0.5,0.5,0,0,0-1,.27l1.4,5a0.5,0.5,0,0,0,.48.36h7.51a0.5,0.5,0,0,0,.48-0.37l1.34-5A0.5,0.5,0,0,0,21.26,24.55ZM12.65,29.5l-0.18-.64h7.1l-0.17.63H12.65Z"/>
  <path d="M16.5,15.76V9.09a0.5,0.5,0,0,0-1,0V16a0.5,0.5,0,0,0,.18.39l3.87,3.18a0.5,0.5,0,1,0,.63-0.77Z"/>
</svg>